<?xml version="1.0" encoding="utf-8"?>
<svg xmlns="http://www.w3.org/2000/svg" xmlns:xlink="http://www.w3.org/1999/xlink" width="600" height="400" viewBox="0 0 2400 1600">
<defs>
  <clipPath id="clip050">
    <rect x="0" y="0" width="2400" height="1600"/>
  </clipPath>
</defs>
<path clip-path="url(#clip050)" d="
M0 1600 L2400 1600 L2400 0 L0 0  Z
  " fill="#ffffff" fill-rule="evenodd" fill-opacity="1"/>
<defs>
  <clipPath id="clip051">
    <rect x="480" y="0" width="1681" height="1600"/>
  </clipPath>
</defs>
<path clip-path="url(#clip050)" d="
M134.584 1486.45 L2352.76 1486.45 L2352.76 123.472 L134.584 123.472  Z
  " fill="#ffffff" fill-rule="evenodd" fill-opacity="1"/>
<defs>
  <clipPath id="clip052">
    <rect x="134" y="123" width="2219" height="1364"/>
  </clipPath>
</defs>
<polyline clip-path="url(#clip052)" style="stroke:#000000; stroke-width:2; stroke-opacity:0.1; fill:none" points="
  197.363,1486.45 197.363,123.472 
  "/>
<polyline clip-path="url(#clip052)" style="stroke:#000000; stroke-width:2; stroke-opacity:0.1; fill:none" points="
  894.901,1486.45 894.901,123.472 
  "/>
<polyline clip-path="url(#clip052)" style="stroke:#000000; stroke-width:2; stroke-opacity:0.1; fill:none" points="
  1592.44,1486.45 1592.44,123.472 
  "/>
<polyline clip-path="url(#clip052)" style="stroke:#000000; stroke-width:2; stroke-opacity:0.1; fill:none" points="
  2289.98,1486.45 2289.98,123.472 
  "/>
<polyline clip-path="url(#clip050)" style="stroke:#000000; stroke-width:4; stroke-opacity:1; fill:none" points="
  134.584,1486.45 2352.76,1486.45 
  "/>
<polyline clip-path="url(#clip050)" style="stroke:#000000; stroke-width:4; stroke-opacity:1; fill:none" points="
  197.363,1486.45 197.363,1470.09 
  "/>
<polyline clip-path="url(#clip050)" style="stroke:#000000; stroke-width:4; stroke-opacity:1; fill:none" points="
  894.901,1486.45 894.901,1470.09 
  "/>
<polyline clip-path="url(#clip050)" style="stroke:#000000; stroke-width:4; stroke-opacity:1; fill:none" points="
  1592.44,1486.45 1592.44,1470.09 
  "/>
<polyline clip-path="url(#clip050)" style="stroke:#000000; stroke-width:4; stroke-opacity:1; fill:none" points="
  2289.98,1486.45 2289.98,1470.09 
  "/>
<path clip-path="url(#clip050)" d="M 0 0 M80.176 1543.18 L87.8149 1543.18 L87.8149 1516.82 L79.5047 1518.49 L79.5047 1514.23 L87.7686 1512.56 L92.4445 1512.56 L92.4445 1543.18 L100.083 1543.18 L100.083 1547.12 L80.176 1547.12 L80.176 1543.18 Z" fill="#000000" fill-rule="evenodd" fill-opacity="1" /><path clip-path="url(#clip050)" d="M 0 0 M105.292 1546.4 L105.292 1542.14 Q107.051 1542.98 108.856 1543.42 Q110.662 1543.86 112.398 1543.86 Q117.028 1543.86 119.458 1540.75 Q121.912 1537.63 122.259 1531.29 Q120.917 1533.28 118.856 1534.34 Q116.796 1535.41 114.296 1535.41 Q109.111 1535.41 106.079 1532.28 Q103.069 1529.13 103.069 1523.69 Q103.069 1518.37 106.218 1515.15 Q109.366 1511.93 114.597 1511.93 Q120.592 1511.93 123.741 1516.54 Q126.912 1521.12 126.912 1529.87 Q126.912 1538.05 123.023 1542.93 Q119.157 1547.79 112.606 1547.79 Q110.847 1547.79 109.042 1547.44 Q107.236 1547.1 105.292 1546.4 M114.597 1531.75 Q117.745 1531.75 119.574 1529.6 Q121.426 1527.44 121.426 1523.69 Q121.426 1519.97 119.574 1517.81 Q117.745 1515.64 114.597 1515.64 Q111.449 1515.64 109.597 1517.81 Q107.768 1519.97 107.768 1523.69 Q107.768 1527.44 109.597 1529.6 Q111.449 1531.75 114.597 1531.75 Z" fill="#000000" fill-rule="evenodd" fill-opacity="1" /><path clip-path="url(#clip050)" d="M 0 0 M130.801 1512.56 L153.023 1512.56 L153.023 1514.55 L140.477 1547.12 L135.592 1547.12 L147.398 1516.5 L130.801 1516.5 L130.801 1512.56 Z" fill="#000000" fill-rule="evenodd" fill-opacity="1" /><path clip-path="url(#clip050)" d="M 0 0 M168.092 1515.64 Q164.481 1515.64 162.652 1519.2 Q160.847 1522.75 160.847 1529.87 Q160.847 1536.98 162.652 1540.55 Q164.481 1544.09 168.092 1544.09 Q171.726 1544.09 173.532 1540.55 Q175.361 1536.98 175.361 1529.87 Q175.361 1522.75 173.532 1519.2 Q171.726 1515.64 168.092 1515.64 M168.092 1511.93 Q173.902 1511.93 176.958 1516.54 Q180.037 1521.12 180.037 1529.87 Q180.037 1538.6 176.958 1543.21 Q173.902 1547.79 168.092 1547.79 Q162.282 1547.79 159.203 1543.21 Q156.148 1538.6 156.148 1529.87 Q156.148 1521.12 159.203 1516.54 Q162.282 1511.93 168.092 1511.93 Z" fill="#000000" fill-rule="evenodd" fill-opacity="1" /><path clip-path="url(#clip050)" d="M 0 0 M182.351 1532.24 L194.828 1532.24 L194.828 1536.03 L182.351 1536.03 L182.351 1532.24 Z" fill="#000000" fill-rule="evenodd" fill-opacity="1" /><path clip-path="url(#clip050)" d="M 0 0 M209.898 1515.64 Q206.286 1515.64 204.458 1519.2 Q202.652 1522.75 202.652 1529.87 Q202.652 1536.98 204.458 1540.55 Q206.286 1544.09 209.898 1544.09 Q213.532 1544.09 215.337 1540.55 Q217.166 1536.98 217.166 1529.87 Q217.166 1522.75 215.337 1519.2 Q213.532 1515.64 209.898 1515.64 M209.898 1511.93 Q215.708 1511.93 218.763 1516.54 Q221.842 1521.12 221.842 1529.87 Q221.842 1538.6 218.763 1543.21 Q215.708 1547.79 209.898 1547.79 Q204.087 1547.79 201.009 1543.21 Q197.953 1538.6 197.953 1529.87 Q197.953 1521.12 201.009 1516.54 Q204.087 1511.93 209.898 1511.93 Z" fill="#000000" fill-rule="evenodd" fill-opacity="1" /><path clip-path="url(#clip050)" d="M 0 0 M227.722 1543.18 L235.36 1543.18 L235.36 1516.82 L227.05 1518.49 L227.05 1514.23 L235.314 1512.56 L239.99 1512.56 L239.99 1543.18 L247.629 1543.18 L247.629 1547.12 L227.722 1547.12 L227.722 1543.18 Z" fill="#000000" fill-rule="evenodd" fill-opacity="1" /><path clip-path="url(#clip050)" d="M 0 0 M249.944 1532.24 L262.42 1532.24 L262.42 1536.03 L249.944 1536.03 L249.944 1532.24 Z" fill="#000000" fill-rule="evenodd" fill-opacity="1" /><path clip-path="url(#clip050)" d="M 0 0 M277.49 1515.64 Q273.879 1515.64 272.05 1519.2 Q270.244 1522.75 270.244 1529.87 Q270.244 1536.98 272.05 1540.55 Q273.879 1544.09 277.49 1544.09 Q281.124 1544.09 282.93 1540.55 Q284.758 1536.98 284.758 1529.87 Q284.758 1522.75 282.93 1519.2 Q281.124 1515.64 277.49 1515.64 M277.49 1511.93 Q283.3 1511.93 286.355 1516.54 Q289.434 1521.12 289.434 1529.87 Q289.434 1538.6 286.355 1543.21 Q283.3 1547.79 277.49 1547.79 Q271.68 1547.79 268.601 1543.21 Q265.545 1538.6 265.545 1529.87 Q265.545 1521.12 268.601 1516.54 Q271.68 1511.93 277.49 1511.93 Z" fill="#000000" fill-rule="evenodd" fill-opacity="1" /><path clip-path="url(#clip050)" d="M 0 0 M295.314 1543.18 L302.953 1543.18 L302.953 1516.82 L294.642 1518.49 L294.642 1514.23 L302.906 1512.56 L307.582 1512.56 L307.582 1543.18 L315.221 1543.18 L315.221 1547.12 L295.314 1547.12 L295.314 1543.18 Z" fill="#000000" fill-rule="evenodd" fill-opacity="1" /><path clip-path="url(#clip050)" d="M 0 0 M777.425 1543.18 L785.064 1543.18 L785.064 1516.82 L776.754 1518.49 L776.754 1514.23 L785.017 1512.56 L789.693 1512.56 L789.693 1543.18 L797.332 1543.18 L797.332 1547.12 L777.425 1547.12 L777.425 1543.18 Z" fill="#000000" fill-rule="evenodd" fill-opacity="1" /><path clip-path="url(#clip050)" d="M 0 0 M802.54 1546.4 L802.54 1542.14 Q804.3 1542.98 806.105 1543.42 Q807.911 1543.86 809.647 1543.86 Q814.277 1543.86 816.707 1540.75 Q819.161 1537.63 819.508 1531.29 Q818.165 1533.28 816.105 1534.34 Q814.045 1535.41 811.545 1535.41 Q806.36 1535.41 803.328 1532.28 Q800.318 1529.13 800.318 1523.69 Q800.318 1518.37 803.466 1515.15 Q806.615 1511.93 811.846 1511.93 Q817.841 1511.93 820.989 1516.54 Q824.161 1521.12 824.161 1529.87 Q824.161 1538.05 820.272 1542.93 Q816.406 1547.79 809.855 1547.79 Q808.096 1547.79 806.29 1547.44 Q804.485 1547.1 802.54 1546.4 M811.846 1531.75 Q814.994 1531.75 816.823 1529.6 Q818.675 1527.44 818.675 1523.69 Q818.675 1519.97 816.823 1517.81 Q814.994 1515.64 811.846 1515.64 Q808.698 1515.64 806.846 1517.81 Q805.017 1519.97 805.017 1523.69 Q805.017 1527.44 806.846 1529.6 Q808.698 1531.75 811.846 1531.75 Z" fill="#000000" fill-rule="evenodd" fill-opacity="1" /><path clip-path="url(#clip050)" d="M 0 0 M828.05 1512.56 L850.272 1512.56 L850.272 1514.55 L837.725 1547.12 L832.841 1547.12 L844.647 1516.5 L828.05 1516.5 L828.05 1512.56 Z" fill="#000000" fill-rule="evenodd" fill-opacity="1" /><path clip-path="url(#clip050)" d="M 0 0 M865.341 1515.64 Q861.73 1515.64 859.901 1519.2 Q858.096 1522.75 858.096 1529.87 Q858.096 1536.98 859.901 1540.55 Q861.73 1544.09 865.341 1544.09 Q868.975 1544.09 870.781 1540.55 Q872.61 1536.98 872.61 1529.87 Q872.61 1522.75 870.781 1519.2 Q868.975 1515.64 865.341 1515.64 M865.341 1511.93 Q871.151 1511.93 874.207 1516.54 Q877.285 1521.12 877.285 1529.87 Q877.285 1538.6 874.207 1543.21 Q871.151 1547.79 865.341 1547.79 Q859.531 1547.79 856.452 1543.21 Q853.397 1538.6 853.397 1529.87 Q853.397 1521.12 856.452 1516.54 Q859.531 1511.93 865.341 1511.93 Z" fill="#000000" fill-rule="evenodd" fill-opacity="1" /><path clip-path="url(#clip050)" d="M 0 0 M879.6 1532.24 L892.077 1532.24 L892.077 1536.03 L879.6 1536.03 L879.6 1532.24 Z" fill="#000000" fill-rule="evenodd" fill-opacity="1" /><path clip-path="url(#clip050)" d="M 0 0 M907.146 1515.64 Q903.535 1515.64 901.707 1519.2 Q899.901 1522.75 899.901 1529.87 Q899.901 1536.98 901.707 1540.55 Q903.535 1544.09 907.146 1544.09 Q910.781 1544.09 912.586 1540.55 Q914.415 1536.98 914.415 1529.87 Q914.415 1522.75 912.586 1519.2 Q910.781 1515.64 907.146 1515.64 M907.146 1511.93 Q912.957 1511.93 916.012 1516.54 Q919.091 1521.12 919.091 1529.87 Q919.091 1538.6 916.012 1543.21 Q912.957 1547.79 907.146 1547.79 Q901.336 1547.79 898.258 1543.21 Q895.202 1538.6 895.202 1529.87 Q895.202 1521.12 898.258 1516.54 Q901.336 1511.93 907.146 1511.93 Z" fill="#000000" fill-rule="evenodd" fill-opacity="1" /><path clip-path="url(#clip050)" d="M 0 0 M924.97 1543.18 L932.609 1543.18 L932.609 1516.82 L924.299 1518.49 L924.299 1514.23 L932.563 1512.56 L937.239 1512.56 L937.239 1543.18 L944.878 1543.18 L944.878 1547.12 L924.97 1547.12 L924.97 1543.18 Z" fill="#000000" fill-rule="evenodd" fill-opacity="1" /><path clip-path="url(#clip050)" d="M 0 0 M947.192 1532.24 L959.669 1532.24 L959.669 1536.03 L947.192 1536.03 L947.192 1532.24 Z" fill="#000000" fill-rule="evenodd" fill-opacity="1" /><path clip-path="url(#clip050)" d="M 0 0 M974.739 1515.64 Q971.128 1515.64 969.299 1519.2 Q967.493 1522.75 967.493 1529.87 Q967.493 1536.98 969.299 1540.55 Q971.128 1544.09 974.739 1544.09 Q978.373 1544.09 980.178 1540.55 Q982.007 1536.98 982.007 1529.87 Q982.007 1522.75 980.178 1519.2 Q978.373 1515.64 974.739 1515.64 M974.739 1511.93 Q980.549 1511.93 983.604 1516.54 Q986.683 1521.12 986.683 1529.87 Q986.683 1538.6 983.604 1543.21 Q980.549 1547.79 974.739 1547.79 Q968.928 1547.79 965.85 1543.21 Q962.794 1538.6 962.794 1529.87 Q962.794 1521.12 965.85 1516.54 Q968.928 1511.93 974.739 1511.93 Z" fill="#000000" fill-rule="evenodd" fill-opacity="1" /><path clip-path="url(#clip050)" d="M 0 0 M1005.92 1528.49 Q1009.28 1529.2 1011.15 1531.47 Q1013.05 1533.74 1013.05 1537.07 Q1013.05 1542.19 1009.53 1544.99 Q1006.01 1547.79 999.53 1547.79 Q997.354 1547.79 995.039 1547.35 Q992.748 1546.93 990.294 1546.08 L990.294 1541.56 Q992.239 1542.7 994.553 1543.28 Q996.868 1543.86 999.391 1543.86 Q1003.79 1543.86 1006.08 1542.12 Q1008.4 1540.38 1008.4 1537.07 Q1008.4 1534.02 1006.24 1532.31 Q1004.11 1530.57 1000.29 1530.57 L996.266 1530.57 L996.266 1526.73 L1000.48 1526.73 Q1003.93 1526.73 1005.76 1525.36 Q1007.59 1523.97 1007.59 1521.38 Q1007.59 1518.72 1005.69 1517.31 Q1003.81 1515.87 1000.29 1515.87 Q998.373 1515.87 996.174 1516.29 Q993.975 1516.7 991.336 1517.58 L991.336 1513.42 Q993.998 1512.68 996.313 1512.31 Q998.651 1511.93 1000.71 1511.93 Q1006.03 1511.93 1009.14 1514.37 Q1012.24 1516.77 1012.24 1520.89 Q1012.24 1523.76 1010.59 1525.75 Q1008.95 1527.72 1005.92 1528.49 Z" fill="#000000" fill-rule="evenodd" fill-opacity="1" /><path clip-path="url(#clip050)" d="M 0 0 M1475.14 1543.18 L1482.78 1543.18 L1482.78 1516.82 L1474.47 1518.49 L1474.47 1514.23 L1482.73 1512.56 L1487.41 1512.56 L1487.41 1543.18 L1495.04 1543.18 L1495.04 1547.12 L1475.14 1547.12 L1475.14 1543.18 Z" fill="#000000" fill-rule="evenodd" fill-opacity="1" /><path clip-path="url(#clip050)" d="M 0 0 M1500.25 1546.4 L1500.25 1542.14 Q1502.01 1542.98 1503.82 1543.42 Q1505.62 1543.86 1507.36 1543.86 Q1511.99 1543.86 1514.42 1540.75 Q1516.87 1537.63 1517.22 1531.29 Q1515.88 1533.28 1513.82 1534.34 Q1511.76 1535.41 1509.26 1535.41 Q1504.07 1535.41 1501.04 1532.28 Q1498.03 1529.13 1498.03 1523.69 Q1498.03 1518.37 1501.18 1515.15 Q1504.33 1511.93 1509.56 1511.93 Q1515.55 1511.93 1518.7 1516.54 Q1521.87 1521.12 1521.87 1529.87 Q1521.87 1538.05 1517.98 1542.93 Q1514.12 1547.79 1507.57 1547.79 Q1505.81 1547.79 1504 1547.44 Q1502.2 1547.1 1500.25 1546.4 M1509.56 1531.75 Q1512.71 1531.75 1514.53 1529.6 Q1516.39 1527.44 1516.39 1523.69 Q1516.39 1519.97 1514.53 1517.81 Q1512.71 1515.64 1509.56 1515.64 Q1506.41 1515.64 1504.56 1517.81 Q1502.73 1519.97 1502.73 1523.69 Q1502.73 1527.44 1504.56 1529.6 Q1506.41 1531.75 1509.56 1531.75 Z" fill="#000000" fill-rule="evenodd" fill-opacity="1" /><path clip-path="url(#clip050)" d="M 0 0 M1525.76 1512.56 L1547.98 1512.56 L1547.98 1514.55 L1535.44 1547.12 L1530.55 1547.12 L1542.36 1516.5 L1525.76 1516.5 L1525.76 1512.56 Z" fill="#000000" fill-rule="evenodd" fill-opacity="1" /><path clip-path="url(#clip050)" d="M 0 0 M1563.05 1515.64 Q1559.44 1515.64 1557.61 1519.2 Q1555.81 1522.75 1555.81 1529.87 Q1555.81 1536.98 1557.61 1540.55 Q1559.44 1544.09 1563.05 1544.09 Q1566.69 1544.09 1568.49 1540.55 Q1570.32 1536.98 1570.32 1529.87 Q1570.32 1522.75 1568.49 1519.2 Q1566.69 1515.64 1563.05 1515.64 M1563.05 1511.93 Q1568.86 1511.93 1571.92 1516.54 Q1575 1521.12 1575 1529.87 Q1575 1538.6 1571.92 1543.21 Q1568.86 1547.79 1563.05 1547.79 Q1557.24 1547.79 1554.16 1543.21 Q1551.11 1538.6 1551.11 1529.87 Q1551.11 1521.12 1554.16 1516.54 Q1557.24 1511.93 1563.05 1511.93 Z" fill="#000000" fill-rule="evenodd" fill-opacity="1" /><path clip-path="url(#clip050)" d="M 0 0 M1577.31 1532.24 L1589.79 1532.24 L1589.79 1536.03 L1577.31 1536.03 L1577.31 1532.24 Z" fill="#000000" fill-rule="evenodd" fill-opacity="1" /><path clip-path="url(#clip050)" d="M 0 0 M1604.86 1515.64 Q1601.25 1515.64 1599.42 1519.2 Q1597.61 1522.75 1597.61 1529.87 Q1597.61 1536.98 1599.42 1540.55 Q1601.25 1544.09 1604.86 1544.09 Q1608.49 1544.09 1610.3 1540.55 Q1612.13 1536.98 1612.13 1529.87 Q1612.13 1522.75 1610.3 1519.2 Q1608.49 1515.64 1604.86 1515.64 M1604.86 1511.93 Q1610.67 1511.93 1613.72 1516.54 Q1616.8 1521.12 1616.8 1529.87 Q1616.8 1538.6 1613.72 1543.21 Q1610.67 1547.79 1604.86 1547.79 Q1599.05 1547.79 1595.97 1543.21 Q1592.91 1538.6 1592.91 1529.87 Q1592.91 1521.12 1595.97 1516.54 Q1599.05 1511.93 1604.86 1511.93 Z" fill="#000000" fill-rule="evenodd" fill-opacity="1" /><path clip-path="url(#clip050)" d="M 0 0 M1622.68 1543.18 L1630.32 1543.18 L1630.32 1516.82 L1622.01 1518.49 L1622.01 1514.23 L1630.27 1512.56 L1634.95 1512.56 L1634.95 1543.18 L1642.59 1543.18 L1642.59 1547.12 L1622.68 1547.12 L1622.68 1543.18 Z" fill="#000000" fill-rule="evenodd" fill-opacity="1" /><path clip-path="url(#clip050)" d="M 0 0 M1644.9 1532.24 L1657.38 1532.24 L1657.38 1536.03 L1644.9 1536.03 L1644.9 1532.24 Z" fill="#000000" fill-rule="evenodd" fill-opacity="1" /><path clip-path="url(#clip050)" d="M 0 0 M1672.45 1515.64 Q1668.84 1515.64 1667.01 1519.2 Q1665.21 1522.75 1665.21 1529.87 Q1665.21 1536.98 1667.01 1540.55 Q1668.84 1544.09 1672.45 1544.09 Q1676.08 1544.09 1677.89 1540.55 Q1679.72 1536.98 1679.72 1529.87 Q1679.72 1522.75 1677.89 1519.2 Q1676.08 1515.64 1672.45 1515.64 M1672.45 1511.93 Q1678.26 1511.93 1681.32 1516.54 Q1684.39 1521.12 1684.39 1529.87 Q1684.39 1538.6 1681.32 1543.21 Q1678.26 1547.79 1672.45 1547.79 Q1666.64 1547.79 1663.56 1543.21 Q1660.51 1538.6 1660.51 1529.87 Q1660.51 1521.12 1663.56 1516.54 Q1666.64 1511.93 1672.45 1511.93 Z" fill="#000000" fill-rule="evenodd" fill-opacity="1" /><path clip-path="url(#clip050)" d="M 0 0 M1689.51 1512.56 L1707.87 1512.56 L1707.87 1516.5 L1693.79 1516.5 L1693.79 1524.97 Q1694.81 1524.62 1695.83 1524.46 Q1696.85 1524.27 1697.87 1524.27 Q1703.65 1524.27 1707.03 1527.44 Q1710.41 1530.62 1710.41 1536.03 Q1710.41 1541.61 1706.94 1544.71 Q1703.47 1547.79 1697.15 1547.79 Q1694.97 1547.79 1692.7 1547.42 Q1690.46 1547.05 1688.05 1546.31 L1688.05 1541.61 Q1690.14 1542.74 1692.36 1543.3 Q1694.58 1543.86 1697.06 1543.86 Q1701.06 1543.86 1703.4 1541.75 Q1705.74 1539.64 1705.74 1536.03 Q1705.74 1532.42 1703.4 1530.31 Q1701.06 1528.21 1697.06 1528.21 Q1695.18 1528.21 1693.31 1528.62 Q1691.45 1529.04 1689.51 1529.92 L1689.51 1512.56 Z" fill="#000000" fill-rule="evenodd" fill-opacity="1" /><path clip-path="url(#clip050)" d="M 0 0 M2172.63 1543.18 L2180.27 1543.18 L2180.27 1516.82 L2171.96 1518.49 L2171.96 1514.23 L2180.22 1512.56 L2184.9 1512.56 L2184.9 1543.18 L2192.54 1543.18 L2192.54 1547.12 L2172.63 1547.12 L2172.63 1543.18 Z" fill="#000000" fill-rule="evenodd" fill-opacity="1" /><path clip-path="url(#clip050)" d="M 0 0 M2197.74 1546.4 L2197.74 1542.14 Q2199.5 1542.98 2201.31 1543.42 Q2203.11 1543.86 2204.85 1543.86 Q2209.48 1543.86 2211.91 1540.75 Q2214.36 1537.63 2214.71 1531.29 Q2213.37 1533.28 2211.31 1534.34 Q2209.25 1535.41 2206.75 1535.41 Q2201.56 1535.41 2198.53 1532.28 Q2195.52 1529.13 2195.52 1523.69 Q2195.52 1518.37 2198.67 1515.15 Q2201.82 1511.93 2207.05 1511.93 Q2213.05 1511.93 2216.19 1516.54 Q2219.36 1521.12 2219.36 1529.87 Q2219.36 1538.05 2215.48 1542.93 Q2211.61 1547.79 2205.06 1547.79 Q2203.3 1547.79 2201.49 1547.44 Q2199.69 1547.1 2197.74 1546.4 M2207.05 1531.75 Q2210.2 1531.75 2212.03 1529.6 Q2213.88 1527.44 2213.88 1523.69 Q2213.88 1519.97 2212.03 1517.81 Q2210.2 1515.64 2207.05 1515.64 Q2203.9 1515.64 2202.05 1517.81 Q2200.22 1519.97 2200.22 1523.69 Q2200.22 1527.44 2202.05 1529.6 Q2203.9 1531.75 2207.05 1531.75 Z" fill="#000000" fill-rule="evenodd" fill-opacity="1" /><path clip-path="url(#clip050)" d="M 0 0 M2223.25 1512.56 L2245.48 1512.56 L2245.48 1514.55 L2232.93 1547.12 L2228.04 1547.12 L2239.85 1516.5 L2223.25 1516.5 L2223.25 1512.56 Z" fill="#000000" fill-rule="evenodd" fill-opacity="1" /><path clip-path="url(#clip050)" d="M 0 0 M2260.54 1515.64 Q2256.93 1515.64 2255.1 1519.2 Q2253.3 1522.75 2253.3 1529.87 Q2253.3 1536.98 2255.1 1540.55 Q2256.93 1544.09 2260.54 1544.09 Q2264.18 1544.09 2265.98 1540.55 Q2267.81 1536.98 2267.81 1529.87 Q2267.81 1522.75 2265.98 1519.2 Q2264.18 1515.64 2260.54 1515.64 M2260.54 1511.93 Q2266.35 1511.93 2269.41 1516.54 Q2272.49 1521.12 2272.49 1529.87 Q2272.49 1538.6 2269.41 1543.21 Q2266.35 1547.79 2260.54 1547.79 Q2254.73 1547.79 2251.66 1543.21 Q2248.6 1538.6 2248.6 1529.87 Q2248.6 1521.12 2251.66 1516.54 Q2254.73 1511.93 2260.54 1511.93 Z" fill="#000000" fill-rule="evenodd" fill-opacity="1" /><path clip-path="url(#clip050)" d="M 0 0 M2274.8 1532.24 L2287.28 1532.24 L2287.28 1536.03 L2274.8 1536.03 L2274.8 1532.24 Z" fill="#000000" fill-rule="evenodd" fill-opacity="1" /><path clip-path="url(#clip050)" d="M 0 0 M2302.35 1515.64 Q2298.74 1515.64 2296.91 1519.2 Q2295.1 1522.75 2295.1 1529.87 Q2295.1 1536.98 2296.91 1540.55 Q2298.74 1544.09 2302.35 1544.09 Q2305.98 1544.09 2307.79 1540.55 Q2309.62 1536.98 2309.62 1529.87 Q2309.62 1522.75 2307.79 1519.2 Q2305.98 1515.64 2302.35 1515.64 M2302.35 1511.93 Q2308.16 1511.93 2311.22 1516.54 Q2314.29 1521.12 2314.29 1529.87 Q2314.29 1538.6 2311.22 1543.21 Q2308.16 1547.79 2302.35 1547.79 Q2296.54 1547.79 2293.46 1543.21 Q2290.41 1538.6 2290.41 1529.87 Q2290.41 1521.12 2293.46 1516.54 Q2296.54 1511.93 2302.35 1511.93 Z" fill="#000000" fill-rule="evenodd" fill-opacity="1" /><path clip-path="url(#clip050)" d="M 0 0 M2320.17 1543.18 L2327.81 1543.18 L2327.81 1516.82 L2319.5 1518.49 L2319.5 1514.23 L2327.77 1512.56 L2332.44 1512.56 L2332.44 1543.18 L2340.08 1543.18 L2340.08 1547.12 L2320.17 1547.12 L2320.17 1543.18 Z" fill="#000000" fill-rule="evenodd" fill-opacity="1" /><path clip-path="url(#clip050)" d="M 0 0 M2342.4 1532.24 L2354.87 1532.24 L2354.87 1536.03 L2342.4 1536.03 L2342.4 1532.24 Z" fill="#000000" fill-rule="evenodd" fill-opacity="1" /><path clip-path="url(#clip050)" d="M 0 0 M2369.94 1515.64 Q2366.33 1515.64 2364.5 1519.2 Q2362.7 1522.75 2362.7 1529.87 Q2362.7 1536.98 2364.5 1540.55 Q2366.33 1544.09 2369.94 1544.09 Q2373.58 1544.09 2375.38 1540.55 Q2377.21 1536.98 2377.21 1529.87 Q2377.21 1522.75 2375.38 1519.2 Q2373.58 1515.64 2369.94 1515.64 M2369.94 1511.93 Q2375.75 1511.93 2378.81 1516.54 Q2381.89 1521.12 2381.89 1529.87 Q2381.89 1538.6 2378.81 1543.21 Q2375.75 1547.79 2369.94 1547.79 Q2364.13 1547.79 2361.05 1543.21 Q2358 1538.6 2358 1529.87 Q2358 1521.12 2361.05 1516.54 Q2364.13 1511.93 2369.94 1511.93 Z" fill="#000000" fill-rule="evenodd" fill-opacity="1" /><path clip-path="url(#clip050)" d="M 0 0 M2385.78 1512.56 L2408 1512.56 L2408 1514.55 L2395.45 1547.12 L2390.57 1547.12 L2402.37 1516.5 L2385.78 1516.5 L2385.78 1512.56 Z" fill="#000000" fill-rule="evenodd" fill-opacity="1" /><polyline clip-path="url(#clip052)" style="stroke:#000000; stroke-width:2; stroke-opacity:0.1; fill:none" points="
  134.584,1291.12 2352.76,1291.12 
  "/>
<polyline clip-path="url(#clip052)" style="stroke:#000000; stroke-width:2; stroke-opacity:0.1; fill:none" points="
  134.584,1034.29 2352.76,1034.29 
  "/>
<polyline clip-path="url(#clip052)" style="stroke:#000000; stroke-width:2; stroke-opacity:0.1; fill:none" points="
  134.584,777.459 2352.76,777.459 
  "/>
<polyline clip-path="url(#clip052)" style="stroke:#000000; stroke-width:2; stroke-opacity:0.1; fill:none" points="
  134.584,520.63 2352.76,520.63 
  "/>
<polyline clip-path="url(#clip052)" style="stroke:#000000; stroke-width:2; stroke-opacity:0.1; fill:none" points="
  134.584,263.8 2352.76,263.8 
  "/>
<polyline clip-path="url(#clip050)" style="stroke:#000000; stroke-width:4; stroke-opacity:1; fill:none" points="
  134.584,1486.45 134.584,123.472 
  "/>
<polyline clip-path="url(#clip050)" style="stroke:#000000; stroke-width:4; stroke-opacity:1; fill:none" points="
  134.584,1291.12 161.203,1291.12 
  "/>
<polyline clip-path="url(#clip050)" style="stroke:#000000; stroke-width:4; stroke-opacity:1; fill:none" points="
  134.584,1034.29 161.203,1034.29 
  "/>
<polyline clip-path="url(#clip050)" style="stroke:#000000; stroke-width:4; stroke-opacity:1; fill:none" points="
  134.584,777.459 161.203,777.459 
  "/>
<polyline clip-path="url(#clip050)" style="stroke:#000000; stroke-width:4; stroke-opacity:1; fill:none" points="
  134.584,520.63 161.203,520.63 
  "/>
<polyline clip-path="url(#clip050)" style="stroke:#000000; stroke-width:4; stroke-opacity:1; fill:none" points="
  134.584,263.8 161.203,263.8 
  "/>
<path clip-path="url(#clip050)" d="M 0 0 M76.9642 1307.68 L76.9642 1303.42 Q78.7235 1304.25 80.529 1304.69 Q82.3346 1305.13 84.0707 1305.13 Q88.7003 1305.13 91.1308 1302.03 Q93.5845 1298.91 93.9317 1292.56 Q92.5891 1294.55 90.529 1295.62 Q88.4688 1296.68 85.9688 1296.68 Q80.7836 1296.68 77.7512 1293.56 Q74.742 1290.41 74.742 1284.97 Q74.742 1279.65 77.8901 1276.43 Q81.0383 1273.21 86.2697 1273.21 Q92.2651 1273.21 95.4132 1277.82 Q98.5845 1282.4 98.5845 1291.15 Q98.5845 1299.32 94.6956 1304.21 Q90.8299 1309.07 84.279 1309.07 Q82.5197 1309.07 80.7142 1308.72 Q78.9086 1308.37 76.9642 1307.68 M86.2697 1293.03 Q89.4178 1293.03 91.2465 1290.87 Q93.0984 1288.72 93.0984 1284.97 Q93.0984 1281.24 91.2465 1279.09 Q89.4178 1276.92 86.2697 1276.92 Q83.1216 1276.92 81.2697 1279.09 Q79.441 1281.24 79.441 1284.97 Q79.441 1288.72 81.2697 1290.87 Q83.1216 1293.03 86.2697 1293.03 Z" fill="#000000" fill-rule="evenodd" fill-opacity="1" /><path clip-path="url(#clip050)" d="M 0 0 M51.6634 1047.63 L59.3023 1047.63 L59.3023 1021.27 L50.9921 1022.93 L50.9921 1018.67 L59.256 1017.01 L63.9319 1017.01 L63.9319 1047.63 L71.5707 1047.63 L71.5707 1051.57 L51.6634 1051.57 L51.6634 1047.63 Z" fill="#000000" fill-rule="evenodd" fill-opacity="1" /><path clip-path="url(#clip050)" d="M 0 0 M86.6401 1020.09 Q83.029 1020.09 81.2003 1023.65 Q79.3948 1027.19 79.3948 1034.32 Q79.3948 1041.43 81.2003 1044.99 Q83.029 1048.54 86.6401 1048.54 Q90.2743 1048.54 92.0799 1044.99 Q93.9086 1041.43 93.9086 1034.32 Q93.9086 1027.19 92.0799 1023.65 Q90.2743 1020.09 86.6401 1020.09 M86.6401 1016.38 Q92.4502 1016.38 95.5058 1020.99 Q98.5845 1025.57 98.5845 1034.32 Q98.5845 1043.05 95.5058 1047.66 Q92.4502 1052.24 86.6401 1052.24 Q80.8299 1052.24 77.7512 1047.66 Q74.6957 1043.05 74.6957 1034.32 Q74.6957 1025.57 77.7512 1020.99 Q80.8299 1016.38 86.6401 1016.38 Z" fill="#000000" fill-rule="evenodd" fill-opacity="1" /><path clip-path="url(#clip050)" d="M 0 0 M52.8903 790.804 L60.5291 790.804 L60.5291 764.438 L52.219 766.105 L52.219 761.845 L60.4828 760.179 L65.1587 760.179 L65.1587 790.804 L72.7976 790.804 L72.7976 794.739 L52.8903 794.739 L52.8903 790.804 Z" fill="#000000" fill-rule="evenodd" fill-opacity="1" /><path clip-path="url(#clip050)" d="M 0 0 M78.6772 790.804 L86.316 790.804 L86.316 764.438 L78.0059 766.105 L78.0059 761.845 L86.2697 760.179 L90.9456 760.179 L90.9456 790.804 L98.5845 790.804 L98.5845 794.739 L78.6772 794.739 L78.6772 790.804 Z" fill="#000000" fill-rule="evenodd" fill-opacity="1" /><path clip-path="url(#clip050)" d="M 0 0 M53.2606 533.974 L60.8995 533.974 L60.8995 507.609 L52.5893 509.275 L52.5893 505.016 L60.8532 503.35 L65.5291 503.35 L65.5291 533.974 L73.1679 533.974 L73.1679 537.91 L53.2606 537.91 L53.2606 533.974 Z" fill="#000000" fill-rule="evenodd" fill-opacity="1" /><path clip-path="url(#clip050)" d="M 0 0 M82.2651 533.974 L98.5845 533.974 L98.5845 537.91 L76.6401 537.91 L76.6401 533.974 Q79.3022 531.22 83.8855 526.59 Q88.4919 521.937 89.6725 520.595 Q91.9178 518.072 92.7975 516.336 Q93.7002 514.576 93.7002 512.887 Q93.7002 510.132 91.7558 508.396 Q89.8345 506.66 86.7327 506.66 Q84.5336 506.66 82.0799 507.424 Q79.6494 508.187 76.8716 509.738 L76.8716 505.016 Q79.6957 503.882 82.1494 503.303 Q84.6031 502.725 86.6401 502.725 Q92.0104 502.725 95.2049 505.41 Q98.3993 508.095 98.3993 512.586 Q98.3993 514.715 97.5891 516.636 Q96.8021 518.535 94.6956 521.127 Q94.1169 521.799 91.0151 525.016 Q87.9132 528.211 82.2651 533.974 Z" fill="#000000" fill-rule="evenodd" fill-opacity="1" /><path clip-path="url(#clip050)" d="M 0 0 M52.3116 277.145 L59.9504 277.145 L59.9504 250.779 L51.6403 252.446 L51.6403 248.187 L59.9041 246.52 L64.58 246.52 L64.58 277.145 L72.2189 277.145 L72.2189 281.08 L52.3116 281.08 L52.3116 277.145 Z" fill="#000000" fill-rule="evenodd" fill-opacity="1" /><path clip-path="url(#clip050)" d="M 0 0 M91.4549 262.446 Q94.8113 263.164 96.6863 265.432 Q98.5845 267.701 98.5845 271.034 Q98.5845 276.15 95.066 278.951 Q91.5475 281.752 85.066 281.752 Q82.8901 281.752 80.5753 281.312 Q78.2836 280.895 75.83 280.039 L75.83 275.525 Q77.7744 276.659 80.0892 277.238 Q82.404 277.816 84.9271 277.816 Q89.3253 277.816 91.6169 276.08 Q93.9317 274.344 93.9317 271.034 Q93.9317 267.978 91.7789 266.266 Q89.6493 264.529 85.8299 264.529 L81.8021 264.529 L81.8021 260.687 L86.0151 260.687 Q89.4641 260.687 91.2928 259.321 Q93.1215 257.932 93.1215 255.34 Q93.1215 252.678 91.2234 251.266 Q89.3484 249.83 85.8299 249.83 Q83.9086 249.83 81.7096 250.247 Q79.5105 250.664 76.8716 251.543 L76.8716 247.377 Q79.5336 246.636 81.8484 246.266 Q84.1864 245.895 86.2466 245.895 Q91.5706 245.895 94.6724 248.326 Q97.7743 250.733 97.7743 254.854 Q97.7743 257.724 96.1308 259.715 Q94.4873 261.682 91.4549 262.446 Z" fill="#000000" fill-rule="evenodd" fill-opacity="1" /><path clip-path="url(#clip050)" d="M 0 0 M1158.26 12.096 L1166.44 12.096 L1166.44 65.6895 L1195.89 65.6895 L1195.89 72.576 L1158.26 72.576 L1158.26 12.096 Z" fill="#000000" fill-rule="evenodd" fill-opacity="1" /><path clip-path="url(#clip050)" d="M 0 0 M1219.83 32.4315 Q1213.84 32.4315 1210.35 37.1306 Q1206.87 41.7891 1206.87 49.9314 Q1206.87 58.0738 1210.31 62.7728 Q1213.79 67.4314 1219.83 67.4314 Q1225.79 67.4314 1229.27 62.7323 Q1232.75 58.0333 1232.75 49.9314 Q1232.75 41.8701 1229.27 37.1711 Q1225.79 32.4315 1219.83 32.4315 M1219.83 26.1121 Q1229.55 26.1121 1235.1 32.4315 Q1240.65 38.7509 1240.65 49.9314 Q1240.65 61.0714 1235.1 67.4314 Q1229.55 73.7508 1219.83 73.7508 Q1210.07 73.7508 1204.52 67.4314 Q1199.01 61.0714 1199.01 49.9314 Q1199.01 38.7509 1204.52 32.4315 Q1210.07 26.1121 1219.83 26.1121 Z" fill="#000000" fill-rule="evenodd" fill-opacity="1" /><path clip-path="url(#clip050)" d="M 0 0 M1269.09 49.7694 Q1260.06 49.7694 1256.57 51.8354 Q1253.09 53.9013 1253.09 58.8839 Q1253.09 62.8538 1255.68 65.2034 Q1258.31 67.5124 1262.81 67.5124 Q1269.01 67.5124 1272.74 63.1374 Q1276.5 58.7219 1276.5 51.4303 L1276.5 49.7694 L1269.09 49.7694 M1283.96 46.6907 L1283.96 72.576 L1276.5 72.576 L1276.5 65.6895 Q1273.95 69.8214 1270.14 71.8063 Q1266.33 73.7508 1260.83 73.7508 Q1253.86 73.7508 1249.73 69.8619 Q1245.63 65.9325 1245.63 59.3701 Q1245.63 51.7138 1250.74 47.825 Q1255.88 43.9361 1266.05 43.9361 L1276.5 43.9361 L1276.5 43.2069 Q1276.5 38.0623 1273.1 35.2672 Q1269.74 32.4315 1263.62 32.4315 Q1259.73 32.4315 1256.05 33.3632 Q1252.36 34.295 1248.96 36.1584 L1248.96 29.2718 Q1253.05 27.692 1256.9 26.9223 Q1260.74 26.1121 1264.39 26.1121 Q1274.23 26.1121 1279.1 31.2163 Q1283.96 36.3204 1283.96 46.6907 Z" fill="#000000" fill-rule="evenodd" fill-opacity="1" /><path clip-path="url(#clip050)" d="M 0 0 M1321.63 34.0924 L1321.63 9.54393 L1329.08 9.54393 L1329.08 72.576 L1321.63 72.576 L1321.63 65.7705 Q1319.28 69.8214 1315.68 71.8063 Q1312.11 73.7508 1307.09 73.7508 Q1298.86 73.7508 1293.68 67.1883 Q1288.53 60.6258 1288.53 49.9314 Q1288.53 39.2371 1293.68 32.6746 Q1298.86 26.1121 1307.09 26.1121 Q1312.11 26.1121 1315.68 28.0971 Q1319.28 30.0415 1321.63 34.0924 M1296.23 49.9314 Q1296.23 58.1548 1299.59 62.8538 Q1303 67.5124 1308.91 67.5124 Q1314.82 67.5124 1318.23 62.8538 Q1321.63 58.1548 1321.63 49.9314 Q1321.63 41.7081 1318.23 37.0496 Q1314.82 32.3505 1308.91 32.3505 Q1303 32.3505 1299.59 37.0496 Q1296.23 41.7081 1296.23 49.9314 Z" fill="#000000" fill-rule="evenodd" fill-opacity="1" /><polyline clip-path="url(#clip052)" style="stroke:#009af9; stroke-width:4; stroke-opacity:1; fill:none" points="
  197.363,1006.36 211.895,1092.94 226.427,1200.22 240.959,1296.3 255.491,1374.37 270.023,1411.57 284.555,1410.93 299.087,1447.87 313.619,1419.39 328.151,1352.49 
  342.683,1258.32 357.215,1172.01 371.747,1102.62 386.279,1106.41 400.812,1153.65 415.344,1168.39 429.876,1155.87 444.408,1024.29 458.94,971.536 473.472,984.42 
  488.004,1040.73 502.536,1102.14 517.068,1042.4 531.6,1030.64 546.132,1149.7 560.664,1249.96 575.196,1334.95 589.728,1394.66 604.26,1407.64 618.792,1347.61 
  633.324,1197.85 647.856,1111.86 662.388,964.417 676.92,854.103 691.452,789.399 705.984,726.197 720.517,709.162 735.049,763.175 749.581,821.137 764.113,816.579 
  778.645,763.087 793.177,566 807.709,538.384 822.241,626.785 836.773,782.83 851.305,892.528 865.837,826.832 880.369,825.429 894.901,964.939 909.433,1091.5 
  923.965,1184.75 938.497,1242.51 953.029,1258.19 967.561,1171.65 982.093,946.051 996.625,778.876 1011.16,582.074 1025.69,521.59 1040.22,486.503 1054.75,440.257 
  1069.29,503.197 1083.82,506.788 1098.35,515.653 1112.88,487.22 1127.41,482.886 1141.95,327.989 1156.48,350.618 1171.01,475.799 1185.54,623.482 1200.07,780.92 
  1214.61,728.38 1229.14,760.953 1243.67,910.466 1258.2,1024.42 1272.73,1143.05 1287.27,1201.88 1301.8,1235.5 1316.33,1133.59 1330.86,938.018 1345.39,771.875 
  1359.93,580.903 1374.46,502.653 1388.99,446.457 1403.52,405.137 1418.05,446.817 1432.59,526.074 1447.12,563.449 1461.65,581.078 1476.18,570.84 1490.71,408.088 
  1505.25,356.277 1519.78,466.028 1534.31,617.112 1548.84,726.989 1563.38,668.413 1577.91,690.982 1592.44,825.93 1606.97,950.531 1621.5,1058.6 1636.04,1121.71 
  1650.57,1135.37 1665.1,1034.41 1679.63,847.314 1694.16,685.31 1708.7,508.205 1723.23,439.984 1737.76,454.635 1752.29,416.435 1766.82,458.942 1781.36,508.289 
  1795.89,551.22 1810.42,501.771 1824.95,473.594 1839.48,279.677 1854.02,250.903 1868.55,370.979 1883.08,501.367 1897.61,630 1912.14,551.17 1926.68,553.633 
  1941.21,672.885 1955.74,776.693 1970.27,881.864 1984.8,949.243 1999.34,949.29 2013.87,877.324 2028.4,682.256 2042.93,530.456 2057.46,345.428 2072,296.807 
  2086.53,318.906 2101.06,321.284 2115.59,368.928 2130.12,418.002 2144.66,483.839 2159.19,460.25 2173.72,447.501 2188.25,253.557 2202.79,278.014 2217.32,420.503 
  2231.85,538.969 2246.38,698.262 2260.91,610.59 2275.45,582.028 2289.98,703.527 
  "/>
<polyline clip-path="url(#clip052)" style="stroke:#e26f46; stroke-width:4; stroke-opacity:1; fill:none" points="
  197.363,1006.36 211.895,1092.94 226.427,1200.22 240.959,1296.3 255.491,1374.37 270.023,1411.57 284.555,1410.93 299.087,1447.87 313.619,1419.39 328.151,1352.49 
  342.683,1258.32 357.215,1172.01 371.747,1102.62 386.279,1106.41 400.812,1153.65 415.344,1168.38 429.876,1155.87 444.408,1024.29 458.94,971.536 473.472,984.419 
  488.004,1040.73 502.536,1102.14 517.068,1042.4 531.6,1030.64 546.132,867.963 560.664,978.891 575.196,1063.76 589.728,1144.74 604.26,1195.67 618.792,1221.15 
  633.324,1188.96 647.856,1175.38 662.388,1044.66 676.92,916.423 691.452,759.726 705.984,668.309 720.517,614.681 735.049,681.297 749.581,769.396 764.113,764.315 
  778.645,767.984 793.177,616.49 807.709,512.431 822.241,572.253 836.773,654.817 851.305,782.958 865.837,753.345 880.369,764.176 894.901,964.939 909.433,1091.5 
  923.965,1184.75 938.497,1242.51 953.029,1258.19 967.561,1171.65 982.093,946.05 996.625,778.876 1011.16,582.074 1025.69,521.59 1040.22,486.503 1054.75,440.257 
  1069.29,503.197 1083.82,506.788 1098.35,515.653 1112.88,487.22 1127.41,482.886 1141.95,327.989 1156.48,350.617 1171.01,475.799 1185.54,623.482 1200.07,780.92 
  1214.61,728.38 1229.14,760.953 1243.67,910.466 1258.2,1024.42 1272.73,1143.05 1287.27,1201.88 1301.8,1235.5 1316.33,1133.59 1330.86,938.017 1345.39,771.875 
  1359.93,580.903 1374.46,502.653 1388.99,446.457 1403.52,405.136 1418.05,446.817 1432.59,526.074 1447.12,563.449 1461.65,581.078 1476.18,570.839 1490.71,408.088 
  1505.25,356.277 1519.78,466.027 1534.31,617.112 1548.84,726.988 1563.38,668.413 1577.91,690.982 1592.44,825.93 1606.97,950.531 1621.5,1058.6 1636.04,1121.71 
  1650.57,1135.37 1665.1,1034.41 1679.63,847.314 1694.16,685.31 1708.7,508.205 1723.23,439.984 1737.76,454.635 1752.29,416.435 1766.82,458.942 1781.36,508.289 
  1795.89,551.22 1810.42,501.771 1824.95,473.594 1839.48,279.677 1854.02,250.903 1868.55,370.979 1883.08,501.367 1897.61,630 1912.14,551.17 1926.68,553.633 
  1941.21,609.067 1955.74,720.881 1970.27,820.808 1984.8,875.545 1999.34,908.151 2013.87,812.389 2028.4,534.323 2042.93,296.22 2057.46,238.967 2072,274.286 
  2086.53,308.7 2101.06,310.002 2115.59,404.008 2130.12,421.768 2144.66,454.918 2159.19,449.341 2173.72,424.284 2188.25,253.587 2202.79,162.047 2217.32,283.641 
  2231.85,420.248 2246.38,566.906 2260.91,517.336 2275.45,502.957 2289.98,703.527 
  "/>
<path clip-path="url(#clip050)" d="
M1840.46 350.345 L2278.82 350.345 L2278.82 168.905 L1840.46 168.905  Z
  " fill="#ffffff" fill-rule="evenodd" fill-opacity="1"/>
<polyline clip-path="url(#clip050)" style="stroke:#000000; stroke-width:4; stroke-opacity:1; fill:none" points="
  1840.46,350.345 2278.82,350.345 2278.82,168.905 1840.46,168.905 1840.46,350.345 
  "/>
<polyline clip-path="url(#clip050)" style="stroke:#009af9; stroke-width:4; stroke-opacity:1; fill:none" points="
  1865.1,229.385 2012.98,229.385 
  "/>
<path clip-path="url(#clip050)" d="M 0 0 M2049.53 223.725 Q2046.1 223.725 2044.11 226.41 Q2042.12 229.072 2042.12 233.725 Q2042.12 238.378 2044.09 241.063 Q2046.08 243.725 2049.53 243.725 Q2052.93 243.725 2054.92 241.04 Q2056.91 238.355 2056.91 233.725 Q2056.91 229.118 2054.92 226.433 Q2052.93 223.725 2049.53 223.725 M2049.53 220.114 Q2055.08 220.114 2058.25 223.725 Q2061.42 227.336 2061.42 233.725 Q2061.42 240.091 2058.25 243.725 Q2055.08 247.336 2049.53 247.336 Q2043.95 247.336 2040.78 243.725 Q2037.63 240.091 2037.63 233.725 Q2037.63 227.336 2040.78 223.725 Q2043.95 220.114 2049.53 220.114 Z" fill="#000000" fill-rule="evenodd" fill-opacity="1" /><path clip-path="url(#clip050)" d="M 0 0 M2080.91 224.72 Q2080.2 224.304 2079.34 224.118 Q2078.51 223.91 2077.49 223.91 Q2073.88 223.91 2071.93 226.271 Q2070.01 228.609 2070.01 233.007 L2070.01 246.665 L2065.73 246.665 L2065.73 220.739 L2070.01 220.739 L2070.01 224.767 Q2071.35 222.406 2073.51 221.271 Q2075.66 220.114 2078.74 220.114 Q2079.18 220.114 2079.71 220.183 Q2080.24 220.23 2080.89 220.345 L2080.91 224.72 Z" fill="#000000" fill-rule="evenodd" fill-opacity="1" /><path clip-path="url(#clip050)" d="M 0 0 M2085.38 220.739 L2089.64 220.739 L2089.64 246.665 L2085.38 246.665 L2085.38 220.739 M2085.38 210.646 L2089.64 210.646 L2089.64 216.04 L2085.38 216.04 L2085.38 210.646 Z" fill="#000000" fill-rule="evenodd" fill-opacity="1" /><path clip-path="url(#clip050)" d="M 0 0 M2111.17 233.401 Q2111.17 228.771 2109.25 226.225 Q2107.35 223.679 2103.9 223.679 Q2100.47 223.679 2098.55 226.225 Q2096.65 228.771 2096.65 233.401 Q2096.65 238.007 2098.55 240.554 Q2100.47 243.1 2103.9 243.1 Q2107.35 243.1 2109.25 240.554 Q2111.17 238.007 2111.17 233.401 M2115.43 243.447 Q2115.43 250.067 2112.49 253.285 Q2109.55 256.526 2103.48 256.526 Q2101.24 256.526 2099.25 256.178 Q2097.26 255.854 2095.38 255.16 L2095.38 251.016 Q2097.26 252.035 2099.09 252.521 Q2100.91 253.007 2102.81 253.007 Q2107 253.007 2109.08 250.808 Q2111.17 248.632 2111.17 244.211 L2111.17 242.104 Q2109.85 244.396 2107.79 245.53 Q2105.73 246.665 2102.86 246.665 Q2098.09 246.665 2095.17 243.03 Q2092.26 239.396 2092.26 233.401 Q2092.26 227.382 2095.17 223.748 Q2098.09 220.114 2102.86 220.114 Q2105.73 220.114 2107.79 221.248 Q2109.85 222.382 2111.17 224.674 L2111.17 220.739 L2115.43 220.739 L2115.43 243.447 Z" fill="#000000" fill-rule="evenodd" fill-opacity="1" /><path clip-path="url(#clip050)" d="M 0 0 M2119.9 220.739 L2124.15 220.739 L2124.15 246.665 L2119.9 246.665 L2119.9 220.739 M2119.9 210.646 L2124.15 210.646 L2124.15 216.04 L2119.9 216.04 L2119.9 210.646 Z" fill="#000000" fill-rule="evenodd" fill-opacity="1" /><path clip-path="url(#clip050)" d="M 0 0 M2150.17 231.017 L2150.17 246.665 L2145.91 246.665 L2145.91 231.155 Q2145.91 227.475 2144.48 225.646 Q2143.04 223.818 2140.17 223.818 Q2136.72 223.818 2134.73 226.017 Q2132.74 228.216 2132.74 232.012 L2132.74 246.665 L2128.46 246.665 L2128.46 220.739 L2132.74 220.739 L2132.74 224.767 Q2134.27 222.429 2136.33 221.271 Q2138.41 220.114 2141.12 220.114 Q2145.59 220.114 2147.88 222.892 Q2150.17 225.646 2150.17 231.017 Z" fill="#000000" fill-rule="evenodd" fill-opacity="1" /><path clip-path="url(#clip050)" d="M 0 0 M2166.42 233.632 Q2161.26 233.632 2159.27 234.813 Q2157.28 235.993 2157.28 238.841 Q2157.28 241.109 2158.76 242.452 Q2160.27 243.771 2162.83 243.771 Q2166.38 243.771 2168.51 241.271 Q2170.66 238.748 2170.66 234.581 L2170.66 233.632 L2166.42 233.632 M2174.92 231.873 L2174.92 246.665 L2170.66 246.665 L2170.66 242.729 Q2169.2 245.091 2167.02 246.225 Q2164.85 247.336 2161.7 247.336 Q2157.72 247.336 2155.36 245.114 Q2153.02 242.868 2153.02 239.118 Q2153.02 234.743 2155.94 232.521 Q2158.88 230.299 2164.69 230.299 L2170.66 230.299 L2170.66 229.882 Q2170.66 226.943 2168.71 225.345 Q2166.79 223.725 2163.3 223.725 Q2161.08 223.725 2158.97 224.257 Q2156.86 224.79 2154.92 225.855 L2154.92 221.919 Q2157.26 221.017 2159.46 220.577 Q2161.65 220.114 2163.74 220.114 Q2169.36 220.114 2172.14 223.031 Q2174.92 225.947 2174.92 231.873 Z" fill="#000000" fill-rule="evenodd" fill-opacity="1" /><path clip-path="url(#clip050)" d="M 0 0 M2179.39 210.646 L2183.64 210.646 L2183.64 246.665 L2179.39 246.665 L2179.39 210.646 Z" fill="#000000" fill-rule="evenodd" fill-opacity="1" /><polyline clip-path="url(#clip050)" style="stroke:#e26f46; stroke-width:4; stroke-opacity:1; fill:none" points="
  1865.1,289.865 2012.98,289.865 
  "/>
<path clip-path="url(#clip050)" d="M 0 0 M2056.05 281.983 L2056.05 286.011 Q2054.25 285.085 2052.3 284.622 Q2050.36 284.159 2048.28 284.159 Q2045.1 284.159 2043.51 285.131 Q2041.93 286.103 2041.93 288.048 Q2041.93 289.529 2043.07 290.385 Q2044.2 291.219 2047.63 291.983 L2049.09 292.307 Q2053.62 293.279 2055.52 295.061 Q2057.44 296.821 2057.44 299.992 Q2057.44 303.603 2054.57 305.709 Q2051.72 307.816 2046.72 307.816 Q2044.64 307.816 2042.37 307.399 Q2040.13 307.006 2037.63 306.196 L2037.63 301.797 Q2039.99 303.024 2042.28 303.649 Q2044.57 304.251 2046.82 304.251 Q2049.83 304.251 2051.45 303.233 Q2053.07 302.191 2053.07 300.316 Q2053.07 298.58 2051.89 297.654 Q2050.73 296.728 2046.77 295.872 L2045.29 295.524 Q2041.33 294.691 2039.57 292.978 Q2037.81 291.242 2037.81 288.233 Q2037.81 284.575 2040.4 282.585 Q2043 280.594 2047.77 280.594 Q2050.13 280.594 2052.21 280.941 Q2054.29 281.288 2056.05 281.983 Z" fill="#000000" fill-rule="evenodd" fill-opacity="1" /><path clip-path="url(#clip050)" d="M 0 0 M2072.7 309.552 Q2070.89 314.182 2069.18 315.594 Q2067.46 317.006 2064.59 317.006 L2061.19 317.006 L2061.19 313.441 L2063.69 313.441 Q2065.45 313.441 2066.42 312.608 Q2067.4 311.774 2068.58 308.672 L2069.34 306.728 L2058.85 281.219 L2063.37 281.219 L2071.47 301.497 L2079.57 281.219 L2084.09 281.219 L2072.7 309.552 Z" fill="#000000" fill-rule="evenodd" fill-opacity="1" /><path clip-path="url(#clip050)" d="M 0 0 M2110.1 291.497 L2110.1 307.145 L2105.84 307.145 L2105.84 291.635 Q2105.84 287.955 2104.41 286.126 Q2102.97 284.298 2100.1 284.298 Q2096.65 284.298 2094.66 286.497 Q2092.67 288.696 2092.67 292.492 L2092.67 307.145 L2088.39 307.145 L2088.39 281.219 L2092.67 281.219 L2092.67 285.247 Q2094.2 282.909 2096.26 281.751 Q2098.34 280.594 2101.05 280.594 Q2105.52 280.594 2107.81 283.372 Q2110.1 286.126 2110.1 291.497 Z" fill="#000000" fill-rule="evenodd" fill-opacity="1" /><path clip-path="url(#clip050)" d="M 0 0 M2118.78 273.858 L2118.78 281.219 L2127.56 281.219 L2127.56 284.529 L2118.78 284.529 L2118.78 298.603 Q2118.78 301.774 2119.64 302.677 Q2120.52 303.58 2123.18 303.58 L2127.56 303.58 L2127.56 307.145 L2123.18 307.145 Q2118.25 307.145 2116.38 305.316 Q2114.5 303.464 2114.5 298.603 L2114.5 284.529 L2111.38 284.529 L2111.38 281.219 L2114.5 281.219 L2114.5 273.858 L2118.78 273.858 Z" fill="#000000" fill-rule="evenodd" fill-opacity="1" /><path clip-path="url(#clip050)" d="M 0 0 M2153.58 291.497 L2153.58 307.145 L2149.32 307.145 L2149.32 291.635 Q2149.32 287.955 2147.88 286.126 Q2146.45 284.298 2143.58 284.298 Q2140.13 284.298 2138.14 286.497 Q2136.15 288.696 2136.15 292.492 L2136.15 307.145 L2131.86 307.145 L2131.86 271.126 L2136.15 271.126 L2136.15 285.247 Q2137.67 282.909 2139.73 281.751 Q2141.82 280.594 2144.52 280.594 Q2148.99 280.594 2151.28 283.372 Q2153.58 286.126 2153.58 291.497 Z" fill="#000000" fill-rule="evenodd" fill-opacity="1" /><path clip-path="url(#clip050)" d="M 0 0 M2180.22 293.117 L2180.22 295.2 L2160.64 295.2 Q2160.91 299.598 2163.27 301.913 Q2165.66 304.205 2169.89 304.205 Q2172.35 304.205 2174.64 303.603 Q2176.95 303.001 2179.22 301.797 L2179.22 305.825 Q2176.93 306.797 2174.52 307.307 Q2172.12 307.816 2169.64 307.816 Q2163.44 307.816 2159.8 304.205 Q2156.19 300.594 2156.19 294.436 Q2156.19 288.071 2159.62 284.344 Q2163.07 280.594 2168.9 280.594 Q2174.13 280.594 2177.16 283.973 Q2180.22 287.33 2180.22 293.117 M2175.96 291.867 Q2175.91 288.372 2173.99 286.288 Q2172.09 284.205 2168.95 284.205 Q2165.38 284.205 2163.23 286.219 Q2161.1 288.233 2160.77 291.89 L2175.96 291.867 Z" fill="#000000" fill-rule="evenodd" fill-opacity="1" /><path clip-path="url(#clip050)" d="M 0 0 M2188.9 273.858 L2188.9 281.219 L2197.67 281.219 L2197.67 284.529 L2188.9 284.529 L2188.9 298.603 Q2188.9 301.774 2189.76 302.677 Q2190.64 303.58 2193.3 303.58 L2197.67 303.58 L2197.67 307.145 L2193.3 307.145 Q2188.37 307.145 2186.49 305.316 Q2184.62 303.464 2184.62 298.603 L2184.62 284.529 L2181.49 284.529 L2181.49 281.219 L2184.62 281.219 L2184.62 273.858 L2188.9 273.858 Z" fill="#000000" fill-rule="evenodd" fill-opacity="1" /><path clip-path="url(#clip050)" d="M 0 0 M2202.14 281.219 L2206.4 281.219 L2206.4 307.145 L2202.14 307.145 L2202.14 281.219 M2202.14 271.126 L2206.4 271.126 L2206.4 276.52 L2202.14 276.52 L2202.14 271.126 Z" fill="#000000" fill-rule="evenodd" fill-opacity="1" /><path clip-path="url(#clip050)" d="M 0 0 M2229.52 282.214 L2229.52 286.196 Q2227.72 285.2 2225.89 284.714 Q2224.08 284.205 2222.23 284.205 Q2218.09 284.205 2215.8 286.844 Q2213.51 289.46 2213.51 294.205 Q2213.51 298.95 2215.8 301.589 Q2218.09 304.205 2222.23 304.205 Q2224.08 304.205 2225.89 303.719 Q2227.72 303.209 2229.52 302.214 L2229.52 306.149 Q2227.74 306.983 2225.82 307.399 Q2223.92 307.816 2221.77 307.816 Q2215.91 307.816 2212.46 304.135 Q2209.02 300.455 2209.02 294.205 Q2209.02 287.862 2212.49 284.228 Q2215.98 280.594 2222.05 280.594 Q2224.01 280.594 2225.89 281.011 Q2227.76 281.404 2229.52 282.214 Z" fill="#000000" fill-rule="evenodd" fill-opacity="1" /></svg>
