<?xml version="1.0" encoding="UTF-8" standalone="no"?>
<!DOCTYPE svg PUBLIC "-//W3C//DTD SVG 1.1//EN" "http://www.w3.org/Graphics/SVG/1.1/DTD/svg11.dtd"
[
<!ATTLIST g
  xmlns:vectornator CDATA #FIXED "http://vectornator.io"
  vectornator:layerName CDATA #IMPLIED >
<!ATTLIST g
  xmlns:vectornator CDATA #FIXED "http://vectornator.io"
  vectornator:mask CDATA #IMPLIED >
<!ATTLIST text
  xmlns:vectornator CDATA #FIXED "http://vectornator.io"
  vectornator:width CDATA #IMPLIED >
<!ATTLIST text
  xmlns:vectornator CDATA #FIXED "http://vectornator.io"
  vectornator:text CDATA #IMPLIED >

<!ATTLIST path
  xmlns:vectornator CDATA #FIXED "http://vectornator.io"
  vectornator:blendMode CDATA #IMPLIED >
<!ATTLIST path
  xmlns:vectornator CDATA #FIXED "http://vectornator.io"
  vectornator:shadowColor CDATA #IMPLIED >
<!ATTLIST path
  xmlns:vectornator CDATA #FIXED "http://vectornator.io"
  vectornator:shadowOpacity CDATA #IMPLIED >
<!ATTLIST path
  xmlns:vectornator CDATA #FIXED "http://vectornator.io"
  vectornator:shadowRadius CDATA #IMPLIED >
<!ATTLIST path
  xmlns:vectornator CDATA #FIXED "http://vectornator.io"
  vectornator:shadowOffset CDATA #IMPLIED >
<!ATTLIST path
  xmlns:vectornator CDATA #FIXED "http://vectornator.io"
  vectornator:shadowAngle CDATA #IMPLIED >

<!ATTLIST image
  xmlns:vectornator CDATA #FIXED "http://vectornator.io"
  vectornator:blendMode CDATA #IMPLIED >
<!ATTLIST image
  xmlns:vectornator CDATA #FIXED "http://vectornator.io"
  vectornator:shadowColor CDATA #IMPLIED >
<!ATTLIST image
  xmlns:vectornator CDATA #FIXED "http://vectornator.io"
  vectornator:shadowOpacity CDATA #IMPLIED >
<!ATTLIST image
  xmlns:vectornator CDATA #FIXED "http://vectornator.io"
  vectornator:shadowRadius CDATA #IMPLIED >
<!ATTLIST image
  xmlns:vectornator CDATA #FIXED "http://vectornator.io"
  vectornator:shadowOffset CDATA #IMPLIED >
<!ATTLIST image
  xmlns:vectornator CDATA #FIXED "http://vectornator.io"
  vectornator:shadowAngle CDATA #IMPLIED >

<!ATTLIST g
  xmlns:vectornator CDATA #FIXED "http://vectornator.io"
  vectornator:blendMode CDATA #IMPLIED >
<!ATTLIST g
  xmlns:vectornator CDATA #FIXED "http://vectornator.io"
  vectornator:shadowColor CDATA #IMPLIED >
<!ATTLIST g
  xmlns:vectornator CDATA #FIXED "http://vectornator.io"
  vectornator:shadowOpacity CDATA #IMPLIED >
<!ATTLIST g
  xmlns:vectornator CDATA #FIXED "http://vectornator.io"
  vectornator:shadowRadius CDATA #IMPLIED >
<!ATTLIST g
  xmlns:vectornator CDATA #FIXED "http://vectornator.io"
  vectornator:shadowOffset CDATA #IMPLIED >
<!ATTLIST g
  xmlns:vectornator CDATA #FIXED "http://vectornator.io"
  vectornator:shadowAngle CDATA #IMPLIED >

<!ENTITY % SVG.filter.extra.content  "| feDropShadow" >
<!ELEMENT feDropShadow EMPTY>
<!ATTLIST feDropShadow
  xmlns:svg CDATA #FIXED "http://www.w3.org/Graphics/SVG/1.1/DTD/svg11.dtd"
  dx CDATA #IMPLIED>
<!ATTLIST feDropShadow
  xmlns:svg CDATA #FIXED "http://www.w3.org/Graphics/SVG/1.1/DTD/svg11.dtd"
  dy CDATA #IMPLIED>
<!ATTLIST feDropShadow
  xmlns:svg CDATA #FIXED "http://www.w3.org/Graphics/SVG/1.1/DTD/svg11.dtd"
  stdDeviation CDATA #IMPLIED>
<!ATTLIST feDropShadow
  xmlns:svg CDATA #FIXED "http://www.w3.org/Graphics/SVG/1.1/DTD/svg11.dtd"
  flood-opacity CDATA #IMPLIED>
<!ATTLIST feDropShadow
  xmlns:svg CDATA #FIXED "http://www.w3.org/Graphics/SVG/1.1/DTD/svg11.dtd"
  in CDATA #IMPLIED>
<!ATTLIST feDropShadow
  xmlns:svg CDATA #FIXED "http://www.w3.org/Graphics/SVG/1.1/DTD/svg11.dtd"
  result CDATA #IMPLIED>
<!ATTLIST feDropShadow
  xmlns:svg CDATA #FIXED "http://www.w3.org/Graphics/SVG/1.1/DTD/svg11.dtd"
  flood-color CDATA #IMPLIED>
]
>
<!-- Created with Vectornator (http://vectornator.io/) -->
<svg height="100%" stroke-miterlimit="10" style="fill-rule:nonzero;clip-rule:evenodd;stroke-linecap:round;stroke-linejoin:round;" version="1.1" viewBox="0 0 331.37 331.37" width="100%" xml:space="preserve" xmlns="http://www.w3.org/2000/svg" xmlns:vectornator="http://vectornator.io" xmlns:xlink="http://www.w3.org/1999/xlink">
<defs>
<clipPath id="TextBounds">
<rect height="55.7023" width="328.226" x="2.57215" y="103.867"/>
</clipPath>
</defs>
<clipPath id="ArtboardFrame">
<rect height="331.37" width="331.37" x="0" y="0"/>
</clipPath>
<g clip-path="url(#ArtboardFrame)" id="Untitled" vectornator:layerName="Untitled">
<path d="M0.725781 0.816653L331.772 0.816653L331.772 331.661L0.725781 331.661L0.725781 0.816653Z" fill="#ffffff" fill-rule="evenodd" opacity="1" stroke="none"/>
<g opacity="1">
<g opacity="1">
<path d="M113.001 187.342C113.001 192.193 109.062 196.161 104.249 196.161L60.4865 196.161C55.6733 196.161 51.7343 192.192 51.7343 187.342L51.7343 157.866C51.7343 153.015 55.6733 149.047 60.4865 149.047L104.249 149.047C109.063 149.047 113.001 153.016 113.001 157.866C113.001 157.866 113.001 187.342 113.001 187.342Z" fill="#52bdec" fill-rule="evenodd" opacity="1" stroke="#000000" stroke-linecap="butt" stroke-linejoin="miter" stroke-width="5"/>
<path d="M113.001 264.798C113.001 269.649 109.062 273.617 104.249 273.617L60.4865 273.617C55.6733 273.617 51.7343 269.648 51.7343 264.798L51.7343 235.322C51.7343 230.471 55.6733 226.503 60.4865 226.503L104.249 226.503C109.063 226.503 113.001 230.472 113.001 235.322C113.001 235.322 113.001 264.798 113.001 264.798Z" fill="#52bdec" fill-rule="evenodd" opacity="1" stroke="#000000" stroke-linecap="butt" stroke-linejoin="miter" stroke-width="5"/>
</g>
<g opacity="1">
<path d="M196.392 187.342C196.392 192.193 192.453 196.161 187.64 196.161L143.877 196.161C139.063 196.161 135.125 192.192 135.125 187.342L135.125 157.866C135.125 153.015 139.064 149.047 143.877 149.047L187.64 149.047C192.454 149.047 196.392 153.016 196.392 157.866C196.392 157.866 196.392 187.342 196.392 187.342Z" fill="#1d8db0" fill-rule="evenodd" opacity="1" stroke="#000000" stroke-linecap="butt" stroke-linejoin="miter" stroke-width="5"/>
<path d="M196.392 264.798C196.392 269.649 192.453 273.617 187.64 273.617L143.877 273.617C139.063 273.617 135.125 269.648 135.125 264.798L135.125 235.322C135.125 230.471 139.064 226.503 143.877 226.503L187.64 226.503C192.454 226.503 196.392 230.472 196.392 235.322C196.392 235.322 196.392 264.798 196.392 264.798Z" fill="#1d8db0" fill-rule="evenodd" opacity="1" stroke="#000000" stroke-linecap="butt" stroke-linejoin="miter" stroke-width="5"/>
</g>
<g opacity="1">
<path d="M278.762 187.342C278.762 192.193 274.823 196.161 270.01 196.161L226.247 196.161C221.433 196.161 217.495 192.192 217.495 187.342L217.495 157.866C217.495 153.015 221.434 149.047 226.247 149.047L270.01 149.047C274.824 149.047 278.762 153.016 278.762 157.866L278.762 187.342Z" fill="#00407a" fill-rule="evenodd" opacity="1" stroke="#000000" stroke-linecap="butt" stroke-linejoin="miter" stroke-width="5"/>
<path d="M278.762 264.798C278.762 269.649 274.823 273.617 270.01 273.617L226.247 273.617C221.433 273.617 217.495 269.648 217.495 264.798L217.495 235.322C217.495 230.471 221.434 226.503 226.247 226.503L270.01 226.503C274.824 226.503 278.762 230.472 278.762 235.322L278.762 264.798Z" fill="#00407a" fill-rule="evenodd" opacity="1" stroke="#000000" stroke-linecap="butt" stroke-linejoin="miter" stroke-width="5"/>
</g>
<path d="M73.574 83.0872C68.345 83.0872 64.067 78.7764 64.067 73.5063L64.067 21.6589C64.067 16.3888 68.345 12.0779 73.574 12.0779L93.3524 12.0779C98.5814 12.0779 102.86 16.3888 102.86 21.6589L102.86 73.5063C102.86 78.7754 98.5824 83.0872 93.3524 83.0872C93.3524 83.0872 73.574 83.0872 73.574 83.0872Z" fill="#ffffff" fill-rule="evenodd" opacity="1" stroke="#000000" stroke-linecap="butt" stroke-linejoin="miter" stroke-width="5"/>
<path d="M238.239 83.0872C233.01 83.0872 228.732 78.7764 228.732 73.5063L228.732 21.6589C228.732 16.3888 233.01 12.0779 238.239 12.0779L258.017 12.0779C263.246 12.0779 267.525 16.3888 267.525 21.6589L267.525 73.5063C267.525 78.7754 263.247 83.0872 258.017 83.0872C258.017 83.0872 238.239 83.0872 238.239 83.0872Z" fill="#ffffff" fill-rule="evenodd" opacity="1" stroke="#000000" stroke-linecap="butt" stroke-linejoin="miter" stroke-width="5"/>
<path d="M317.52 51.2571C317.52 51.2571 301.822 51.2571 289.844 51.2571C288.262 51.2571 285.337 51.2571 285.337 54.9307L285.337 71.3303C285.337 86.9879 276.73 99.7266 257.157 99.7266L238.948 99.7266C220.389 99.7266 210.768 86.9879 210.768 71.3303L210.769 55.7872C210.769 52.8507 208.733 51.2571 206.305 51.2571C183.118 51.2571 149.93 51.2571 125.921 51.2571C124.138 51.2571 120.748 51.2571 120.748 55.9096L120.748 71.3303C120.748 86.9879 113 99.7266 92.5676 99.7266L74.3589 99.7266C51.7333 99.7266 46.1789 86.9879 46.1789 71.3303L46.1789 56.5214C46.1789 52.3613 42.4624 51.2571 40.439 51.2571C28.6007 51.2571 13.9968 51.2571 13.9968 51.2571C8.9456 51.2571 4.81331 55.4211 4.81331 67.367L4.81331 314.641C4.81331 312.875 8.9456 317.039 13.9968 317.039L317.519 317.039C322.57 317.039 326.702 312.875 326.702 314.641L326.702 67.367C326.702 55.4211 322.57 51.2571 317.52 51.2571ZM306.295 287.22C306.295 292.31 302.163 296.474 297.112 296.474L34.4047 296.474C29.3535 296.474 25.2212 292.31 25.2212 287.22L25.2212 133.998C25.2212 128.908 29.3535 124.744 34.4047 124.744L297.112 124.744C302.163 124.744 306.295 128.908 306.295 133.998C306.295 133.998 306.295 287.22 306.295 287.22Z" fill="#ffffff" fill-rule="evenodd" opacity="1" stroke="#000000" stroke-linecap="butt" stroke-linejoin="miter" stroke-width="5"/>
</g>
<g fill="#000000" opacity="1" stroke="none">
<path clip-path="url(#TextBounds)" d="M25.5569 117.867L25.5569 106.413L30.4241 106.413C31.648 106.413 32.5373 106.516 33.092 106.722C33.6467 106.928 34.0907 107.294 34.4241 107.82C34.7574 108.346 34.9241 108.947 34.9241 109.624C34.9241 110.484 34.6715 111.193 34.1662 111.753C33.661 112.313 32.9058 112.666 31.9006 112.812C32.4006 113.104 32.8134 113.424 33.1389 113.773C33.4644 114.122 33.9032 114.742 34.4553 115.632L35.8537 117.867L33.0881 117.867L31.4162 115.374C30.8225 114.484 30.4163 113.923 30.1975 113.691C29.9787 113.459 29.747 113.3 29.5022 113.214C29.2574 113.128 28.8694 113.085 28.3381 113.085L27.8694 113.085L27.8694 117.867L25.5569 117.867ZM27.8694 111.257L29.5803 111.257C30.6897 111.257 31.3824 111.21 31.6584 111.117C31.9345 111.023 32.1506 110.861 32.3069 110.632C32.4631 110.403 32.5412 110.117 32.5412 109.773C32.5412 109.387 32.4384 109.076 32.2327 108.839C32.0269 108.602 31.7366 108.452 31.3616 108.39C31.1741 108.364 30.6116 108.351 29.6741 108.351L27.8694 108.351L27.8694 111.257Z" fill-rule="evenodd"/>
<path clip-path="url(#TextBounds)" d="M37.1037 117.867L37.1037 106.413L45.5959 106.413L45.5959 108.351L39.4162 108.351L39.4162 110.89L45.1662 110.89L45.1662 112.82L39.4162 112.82L39.4162 115.937L45.8147 115.937L45.8147 117.867L37.1037 117.867Z" fill-rule="evenodd"/>
<path clip-path="url(#TextBounds)" d="M47.7756 117.867L47.7756 106.413L51.4866 106.413C52.8928 106.413 53.8095 106.471 54.2366 106.585C54.8928 106.757 55.4423 107.131 55.885 107.706C56.3277 108.282 56.5491 109.025 56.5491 109.937C56.5491 110.64 56.4215 111.231 56.1662 111.71C55.911 112.189 55.5868 112.566 55.1936 112.839C54.8004 113.113 54.4006 113.294 53.9944 113.382C53.4423 113.492 52.6428 113.546 51.5959 113.546L50.0881 113.546L50.0881 117.867L47.7756 117.867ZM50.0881 108.351L50.0881 111.601L51.3537 111.601C52.2652 111.601 52.8746 111.541 53.1819 111.421C53.4892 111.301 53.7301 111.114 53.9045 110.859C54.079 110.604 54.1662 110.307 54.1662 109.968C54.1662 109.551 54.0439 109.208 53.7991 108.937C53.5543 108.666 53.2444 108.497 52.8694 108.429C52.5933 108.377 52.0386 108.351 51.2053 108.351L50.0881 108.351Z" fill-rule="evenodd"/>
<path clip-path="url(#TextBounds)" d="M58.4553 117.867L58.4553 106.413L63.3225 106.413C64.5465 106.413 65.4358 106.516 65.9905 106.722C66.5452 106.928 66.9892 107.294 67.3225 107.82C67.6558 108.346 67.8225 108.947 67.8225 109.624C67.8225 110.484 67.5699 111.193 67.0647 111.753C66.5595 112.313 65.8043 112.666 64.7991 112.812C65.2991 113.104 65.7118 113.424 66.0373 113.773C66.3629 114.122 66.8017 114.742 67.3537 115.632L68.7522 117.867L65.9866 117.867L64.3147 115.374C63.7209 114.484 63.3147 113.923 63.0959 113.691C62.8772 113.459 62.6454 113.3 62.4006 113.214C62.1558 113.128 61.7678 113.085 61.2366 113.085L60.7678 113.085L60.7678 117.867L58.4553 117.867ZM60.7678 111.257L62.4787 111.257C63.5881 111.257 64.2808 111.21 64.5569 111.117C64.8329 111.023 65.0491 110.861 65.2053 110.632C65.3616 110.403 65.4397 110.117 65.4397 109.773C65.4397 109.387 65.3368 109.076 65.1311 108.839C64.9254 108.602 64.635 108.452 64.26 108.39C64.0725 108.364 63.51 108.351 62.5725 108.351L60.7678 108.351L60.7678 111.257Z" fill-rule="evenodd"/>
<path clip-path="url(#TextBounds)" d="M70.0022 117.867L70.0022 106.413L78.4944 106.413L78.4944 108.351L72.3147 108.351L72.3147 110.89L78.0647 110.89L78.0647 112.82L72.3147 112.82L72.3147 115.937L78.7131 115.937L78.7131 117.867L70.0022 117.867Z" fill-rule="evenodd"/>
<path clip-path="url(#TextBounds)" d="M80.0881 114.14L82.3381 113.921C82.4735 114.676 82.7483 115.231 83.1623 115.585C83.5764 115.939 84.135 116.117 84.8381 116.117C85.5829 116.117 86.1441 115.959 86.5217 115.644C86.8993 115.329 87.0881 114.96 87.0881 114.538C87.0881 114.268 87.0087 114.037 86.8498 113.847C86.691 113.657 86.4136 113.492 86.0178 113.351C85.747 113.257 85.1298 113.09 84.1662 112.851C82.9267 112.544 82.0569 112.166 81.5569 111.718C80.8537 111.088 80.5022 110.32 80.5022 109.413C80.5022 108.83 80.6676 108.285 80.9983 107.777C81.329 107.269 81.8056 106.882 82.428 106.617C83.0504 106.351 83.8017 106.218 84.6819 106.218C86.1194 106.218 87.2014 106.533 87.928 107.163C88.6545 107.794 89.036 108.635 89.0725 109.687L86.76 109.788C86.661 109.2 86.4488 108.777 86.1233 108.519C85.7978 108.261 85.3095 108.132 84.6584 108.132C83.9866 108.132 83.4605 108.27 83.0803 108.546C82.8355 108.723 82.7131 108.96 82.7131 109.257C82.7131 109.528 82.8277 109.76 83.0569 109.952C83.3485 110.197 84.0569 110.452 85.1819 110.718C86.3069 110.984 87.1389 111.258 87.678 111.542C88.217 111.826 88.6389 112.214 88.9436 112.706C89.2483 113.199 89.4006 113.807 89.4006 114.531C89.4006 115.187 89.2183 115.801 88.8537 116.374C88.4892 116.947 87.9735 117.373 87.3069 117.652C86.6402 117.93 85.8095 118.07 84.8147 118.07C83.3668 118.07 82.2548 117.735 81.4787 117.066C80.7027 116.396 80.2392 115.421 80.0881 114.14Z" fill-rule="evenodd"/>
<path clip-path="url(#TextBounds)" d="M91.3459 117.867L91.3459 106.413L99.8381 106.413L99.8381 108.351L93.6584 108.351L93.6584 110.89L99.4084 110.89L99.4084 112.82L93.6584 112.82L93.6584 115.937L100.057 115.937L100.057 117.867L91.3459 117.867Z" fill-rule="evenodd"/>
<path clip-path="url(#TextBounds)" d="M102.041 117.867L102.041 106.413L104.291 106.413L108.979 114.062L108.979 106.413L111.127 106.413L111.127 117.867L108.807 117.867L104.19 110.398L104.19 117.867L102.041 117.867Z" fill-rule="evenodd"/>
<path clip-path="url(#TextBounds)" d="M116.151 117.867L116.151 108.351L112.752 108.351L112.752 106.413L121.854 106.413L121.854 108.351L118.463 108.351L118.463 117.867L116.151 117.867Z" fill-rule="evenodd"/>
<path clip-path="url(#TextBounds)" d="M132.487 117.867L129.971 117.867L128.971 115.265L124.393 115.265L123.447 117.867L120.994 117.867L125.455 106.413L127.901 106.413L132.487 117.867ZM128.229 113.335L126.651 109.085L125.104 113.335L128.229 113.335Z" fill-rule="evenodd"/>
<path clip-path="url(#TextBounds)" d="M135.104 117.867L135.104 108.351L131.705 108.351L131.705 106.413L140.807 106.413L140.807 108.351L137.416 108.351L137.416 117.867L135.104 117.867Z" fill-rule="evenodd"/>
<path clip-path="url(#TextBounds)" d="M142.229 117.867L142.229 106.413L144.541 106.413L144.541 117.867L142.229 117.867Z" fill-rule="evenodd"/>
<path clip-path="url(#TextBounds)" d="M149.666 117.867L145.572 106.413L148.08 106.413L150.979 114.89L153.783 106.413L156.237 106.413L152.135 117.867L149.666 117.867Z" fill-rule="evenodd"/>
<path clip-path="url(#TextBounds)" d="M157.416 117.867L157.416 106.413L165.908 106.413L165.908 108.351L159.729 108.351L159.729 110.89L165.479 110.89L165.479 112.82L159.729 112.82L159.729 115.937L166.127 115.937L166.127 117.867L157.416 117.867Z" fill-rule="evenodd"/>
<path clip-path="url(#TextBounds)" d="M172.533 117.867L172.533 106.413L176.244 106.413C177.651 106.413 178.567 106.471 178.994 106.585C179.651 106.757 180.2 107.131 180.643 107.706C181.086 108.282 181.307 109.025 181.307 109.937C181.307 110.64 181.179 111.231 180.924 111.71C180.669 112.189 180.345 112.566 179.951 112.839C179.558 113.113 179.158 113.294 178.752 113.382C178.2 113.492 177.401 113.546 176.354 113.546L174.846 113.546L174.846 117.867L172.533 117.867ZM174.846 108.351L174.846 111.601L176.112 111.601C177.023 111.601 177.632 111.541 177.94 111.421C178.247 111.301 178.488 111.114 178.662 110.859C178.837 110.604 178.924 110.307 178.924 109.968C178.924 109.551 178.802 109.208 178.557 108.937C178.312 108.666 178.002 108.497 177.627 108.429C177.351 108.377 176.796 108.351 175.963 108.351L174.846 108.351Z" fill-rule="evenodd"/>
<path clip-path="url(#TextBounds)" d="M183.205 117.867L183.205 106.413L191.697 106.413L191.697 108.351L185.518 108.351L185.518 110.89L191.268 110.89L191.268 112.82L185.518 112.82L185.518 115.937L191.916 115.937L191.916 117.867L183.205 117.867Z" fill-rule="evenodd"/>
<path clip-path="url(#TextBounds)" d="M193.885 117.867L193.885 106.413L198.752 106.413C199.976 106.413 200.865 106.516 201.42 106.722C201.975 106.928 202.419 107.294 202.752 107.82C203.086 108.346 203.252 108.947 203.252 109.624C203.252 110.484 203 111.193 202.494 111.753C201.989 112.313 201.234 112.666 200.229 112.812C200.729 113.104 201.142 113.424 201.467 113.773C201.793 114.122 202.231 114.742 202.783 115.632L204.182 117.867L201.416 117.867L199.744 115.374C199.151 114.484 198.744 113.923 198.526 113.691C198.307 113.459 198.075 113.3 197.83 113.214C197.586 113.128 197.198 113.085 196.666 113.085L196.197 113.085L196.197 117.867L193.885 117.867ZM196.197 111.257L197.908 111.257C199.018 111.257 199.711 111.21 199.987 111.117C200.263 111.023 200.479 110.861 200.635 110.632C200.791 110.403 200.869 110.117 200.869 109.773C200.869 109.387 200.767 109.076 200.561 108.839C200.355 108.602 200.065 108.452 199.69 108.39C199.502 108.364 198.94 108.351 198.002 108.351L196.197 108.351L196.197 111.257Z" fill-rule="evenodd"/>
<path clip-path="url(#TextBounds)" d="M205.362 117.867L205.362 106.413L207.674 106.413L207.674 117.867L205.362 117.867Z" fill-rule="evenodd"/>
<path clip-path="url(#TextBounds)" d="M209.408 112.21C209.408 111.044 209.583 110.064 209.932 109.273C210.192 108.689 210.548 108.166 210.998 107.702C211.449 107.239 211.942 106.895 212.479 106.671C213.192 106.369 214.015 106.218 214.947 106.218C216.635 106.218 217.985 106.742 218.998 107.788C220.011 108.835 220.518 110.291 220.518 112.156C220.518 114.005 220.015 115.451 219.01 116.495C218.005 117.54 216.661 118.062 214.979 118.062C213.276 118.062 211.921 117.542 210.916 116.503C209.911 115.464 209.408 114.033 209.408 112.21ZM211.791 112.132C211.791 113.429 212.091 114.412 212.69 115.081C213.289 115.751 214.049 116.085 214.971 116.085C215.893 116.085 216.649 115.753 217.24 115.089C217.832 114.425 218.127 113.429 218.127 112.101C218.127 110.788 217.839 109.809 217.264 109.163C216.688 108.518 215.924 108.195 214.971 108.195C214.018 108.195 213.25 108.521 212.666 109.175C212.083 109.829 211.791 110.814 211.791 112.132Z" fill-rule="evenodd"/>
<path clip-path="url(#TextBounds)" d="M222.315 106.413L226.541 106.413C227.494 106.413 228.221 106.486 228.721 106.632C229.393 106.83 229.968 107.182 230.447 107.687C230.927 108.192 231.291 108.811 231.541 109.542C231.791 110.274 231.916 111.176 231.916 112.249C231.916 113.192 231.799 114.005 231.565 114.687C231.278 115.52 230.869 116.195 230.338 116.71C229.937 117.101 229.395 117.406 228.713 117.624C228.203 117.786 227.52 117.867 226.666 117.867L222.315 117.867L222.315 106.413ZM224.627 108.351L224.627 115.937L226.354 115.937C227 115.937 227.466 115.9 227.752 115.827C228.127 115.734 228.438 115.575 228.686 115.351C228.933 115.127 229.135 114.758 229.291 114.245C229.448 113.732 229.526 113.033 229.526 112.148C229.526 111.262 229.448 110.583 229.291 110.109C229.135 109.635 228.916 109.265 228.635 108.999C228.354 108.734 227.997 108.554 227.565 108.46C227.242 108.387 226.609 108.351 225.666 108.351L224.627 108.351Z" fill-rule="evenodd"/>
<path clip-path="url(#TextBounds)" d="M233.291 114.14L235.541 113.921C235.677 114.676 235.951 115.231 236.365 115.585C236.78 115.939 237.338 116.117 238.041 116.117C238.786 116.117 239.347 115.959 239.725 115.644C240.102 115.329 240.291 114.96 240.291 114.538C240.291 114.268 240.212 114.037 240.053 113.847C239.894 113.657 239.617 113.492 239.221 113.351C238.95 113.257 238.333 113.09 237.369 112.851C236.13 112.544 235.26 112.166 234.76 111.718C234.057 111.088 233.705 110.32 233.705 109.413C233.705 108.83 233.871 108.285 234.201 107.777C234.532 107.269 235.009 106.882 235.631 106.617C236.253 106.351 237.005 106.218 237.885 106.218C239.323 106.218 240.405 106.533 241.131 107.163C241.858 107.794 242.239 108.635 242.276 109.687L239.963 109.788C239.864 109.2 239.652 108.777 239.326 108.519C239.001 108.261 238.513 108.132 237.862 108.132C237.19 108.132 236.664 108.27 236.283 108.546C236.039 108.723 235.916 108.96 235.916 109.257C235.916 109.528 236.031 109.76 236.26 109.952C236.552 110.197 237.26 110.452 238.385 110.718C239.51 110.984 240.342 111.258 240.881 111.542C241.42 111.826 241.842 112.214 242.147 112.706C242.451 113.199 242.604 113.807 242.604 114.531C242.604 115.187 242.421 115.801 242.057 116.374C241.692 116.947 241.177 117.373 240.51 117.652C239.843 117.93 239.013 118.07 238.018 118.07C236.57 118.07 235.458 117.735 234.682 117.066C233.906 116.396 233.442 115.421 233.291 114.14Z" fill-rule="evenodd"/>
<path clip-path="url(#TextBounds)" d="M249.01 117.867L249.01 106.413L256.862 106.413L256.862 108.351L251.322 108.351L251.322 111.062L256.104 111.062L256.104 112.999L251.322 112.999L251.322 117.867L249.01 117.867Z" fill-rule="evenodd"/>
<path clip-path="url(#TextBounds)" d="M258.697 117.867L258.697 106.413L261.01 106.413L261.01 117.867L258.697 117.867Z" fill-rule="evenodd"/>
<path clip-path="url(#TextBounds)" d="M263.237 117.867L263.237 106.413L265.487 106.413L270.174 114.062L270.174 106.413L272.322 106.413L272.322 117.867L270.002 117.867L265.385 110.398L265.385 117.867L263.237 117.867Z" fill-rule="evenodd"/>
<path clip-path="url(#TextBounds)" d="M274.76 106.413L278.987 106.413C279.94 106.413 280.666 106.486 281.166 106.632C281.838 106.83 282.414 107.182 282.893 107.687C283.372 108.192 283.737 108.811 283.987 109.542C284.237 110.274 284.362 111.176 284.362 112.249C284.362 113.192 284.244 114.005 284.01 114.687C283.724 115.52 283.315 116.195 282.783 116.71C282.382 117.101 281.841 117.406 281.158 117.624C280.648 117.786 279.966 117.867 279.112 117.867L274.76 117.867L274.76 106.413ZM277.072 108.351L277.072 115.937L278.799 115.937C279.445 115.937 279.911 115.9 280.197 115.827C280.573 115.734 280.884 115.575 281.131 115.351C281.378 115.127 281.58 114.758 281.737 114.245C281.893 113.732 281.971 113.033 281.971 112.148C281.971 111.262 281.893 110.583 281.737 110.109C281.58 109.635 281.362 109.265 281.08 108.999C280.799 108.734 280.442 108.554 280.01 108.46C279.687 108.387 279.054 108.351 278.112 108.351L277.072 108.351Z" fill-rule="evenodd"/>
<path clip-path="url(#TextBounds)" d="M286.322 117.867L286.322 106.413L294.815 106.413L294.815 108.351L288.635 108.351L288.635 110.89L294.385 110.89L294.385 112.82L288.635 112.82L288.635 115.937L295.033 115.937L295.033 117.867L286.322 117.867Z" fill-rule="evenodd"/>
<path clip-path="url(#TextBounds)" d="M297.002 117.867L297.002 106.413L301.869 106.413C303.093 106.413 303.983 106.516 304.537 106.722C305.092 106.928 305.536 107.294 305.869 107.82C306.203 108.346 306.369 108.947 306.369 109.624C306.369 110.484 306.117 111.193 305.612 111.753C305.106 112.313 304.351 112.666 303.346 112.812C303.846 113.104 304.259 113.424 304.584 113.773C304.91 114.122 305.349 114.742 305.901 115.632L307.299 117.867L304.533 117.867L302.862 115.374C302.268 114.484 301.862 113.923 301.643 113.691C301.424 113.459 301.192 113.3 300.947 113.214C300.703 113.128 300.315 113.085 299.783 113.085L299.315 113.085L299.315 117.867L297.002 117.867ZM299.315 111.257L301.026 111.257C302.135 111.257 302.828 111.21 303.104 111.117C303.38 111.023 303.596 110.861 303.752 110.632C303.908 110.403 303.987 110.117 303.987 109.773C303.987 109.387 303.884 109.076 303.678 108.839C303.472 108.602 303.182 108.452 302.807 108.39C302.619 108.364 302.057 108.351 301.119 108.351L299.315 108.351L299.315 111.257Z" fill-rule="evenodd"/>
</g>
<path d="M163.564 90.058C163.564 95.9368 158.798 100.702 152.919 100.702C147.04 100.702 142.275 95.9368 142.275 90.058C142.275 84.1792 147.04 79.4136 152.919 79.4136C158.798 79.4136 163.564 84.1792 163.564 90.058" fill="#cb3c33" fill-rule="evenodd" opacity="1" stroke="none"/>
<path d="M175.855 68.7692C175.855 74.648 171.089 79.4136 165.21 79.4136C159.331 79.4136 154.566 74.648 154.566 68.7692C154.566 62.8904 159.331 58.1248 165.21 58.1248C171.089 58.1248 175.855 62.8904 175.855 68.7692" fill="#389826" fill-rule="evenodd" opacity="1" stroke="none"/>
<path d="M188.146 90.058C188.146 95.9368 183.38 100.702 177.501 100.702C171.622 100.702 166.857 95.9368 166.857 90.058C166.857 84.1792 171.622 79.4136 177.501 79.4136C183.38 79.4136 188.146 84.1792 188.146 90.058" fill="#9558b2" fill-rule="evenodd" opacity="1" stroke="none"/>
</g>
</svg>
